# xmcd
# Copyright (C) 1995-1998 Ti Kan
#
# Track frame offsets:
#       150
#       14458
#       29970
#       46885
#
# Disc length: 816 seconds
#
# Revision: 0
# Processed by: cddbd v1.4PL0 Copyright (c) Steve Scherf et al.
# Submitted via: CD-Transfer v1.0
#
DISCID=30032e04
DTITLE=Catmark - Like A Rock
DYEAR=2003
DGENRE=
TTITLE0=Like A Rock
TTITLE1=Lila Feat. Anamcy
TTITLE2=Just Call My Name
TTITLE3=Like A Rock (Karaoke Version)
EXTD=
EXTT0=
EXTT1=
EXTT2=
EXTT3=
PLAYORDER=
